<?xml version="1.0" encoding="utf-8"?>
<!-- Generator: Adobe Illustrator 28.2.0, SVG Export Plug-In . SVG Version: 6.00 Build 0)  -->
<svg version="1.1" id="Layer_1" xmlns="http://www.w3.org/2000/svg" xmlns:xlink="http://www.w3.org/1999/xlink" x="0px" y="0px"
	 viewBox="0 0 256 256" style="enable-background:new 0 0 256 256;" xml:space="preserve">
<style type="text/css">
	.st0{fill:#FFFFFF;}
</style>
<g>
	<g>
		<path class="st0" d="M137.5,193.1c0,6.6-6.8,9.9-12,6.9c-7.1-4-105.4-61.4-111.4-65c-5.4-3.2-5.5-10.9,0-14.1
			c8.3-4.8,106.2-62,111.1-64.8c6.1-3.5,12.3,1,12.3,7V193.1L137.5,193.1z M246,193.1c0,6.6-6.8,9.9-12,6.9
			c-7.1-4-105.4-61.4-111.4-65c-5.4-3.2-5.5-10.9,0-14.1c8.3-4.8,106.2-62,111.1-64.8c6.1-3.5,12.3,1,12.3,7V193.1L246,193.1z"/>
	</g>
</g>
<g>
	<path d="M962.6,540v-0.2c0.5-0.1,0.6-0.1,0.6-0.7v-1.4c0-0.7-0.3-1-0.8-1c-0.3,0-0.6,0.2-0.9,0.4v2c0,0.5,0.1,0.6,0.6,0.7v0.2h-1.9
		v-0.2c0.5-0.1,0.6-0.1,0.6-0.7V535c0-0.5,0-0.6-0.6-0.6v-0.2c0.4-0.1,1-0.2,1.3-0.3v2.9c0.3-0.3,0.8-0.6,1.2-0.6
		c0.7,0,1.2,0.4,1.2,1.5v1.5c0,0.6,0.1,0.6,0.6,0.7v0.2h-1.9V540z"/>
	<path d="M966.8,540c-0.2,0.1-0.3,0.1-0.4,0.1c-0.6,0-0.9-0.3-0.9-1v-2.5h-0.6v-0.1l0.2-0.3h0.4v-0.6l0.6-0.6h0.1v1.2h1
		c0.1,0.1,0.1,0.3-0.1,0.4h-0.9v2.2c0,0.7,0.3,0.8,0.5,0.8s0.4-0.1,0.5-0.1l0.1,0.2L966.8,540z"/>
	<path d="M969.5,540c-0.2,0.1-0.3,0.1-0.4,0.1c-0.6,0-0.9-0.3-0.9-1v-2.5h-0.6v-0.1l0.2-0.3h0.4v-0.6l0.6-0.6h0.1v1.2h1
		c0.1,0.1,0.1,0.3-0.1,0.4H969v2.2c0,0.7,0.3,0.8,0.5,0.8s0.4-0.1,0.5-0.1l0.1,0.2L969.5,540z"/>
	<path d="M972.5,536.3c0.2-0.1,0.3-0.1,0.5-0.1c1,0,1.6,0.8,1.6,1.6c0,1.3-1,2.1-2.2,2.3c-0.3,0-0.5-0.1-0.6-0.1v1.1
		c0,0.6,0.1,0.7,0.7,0.7v0.2h-2.1v-0.2c0.6-0.1,0.6-0.1,0.6-0.7v-3.9c0-0.5,0-0.6-0.6-0.6v-0.2c0.4-0.1,0.9-0.2,1.3-0.4v0.7
		L972.5,536.3z M971.7,539.3c0.2,0.2,0.5,0.3,0.8,0.3c0.7,0,1.2-0.7,1.2-1.5c0-0.9-0.6-1.4-1.2-1.4c-0.3,0-0.6,0.2-0.8,0.4V539.3z"
		/>
	<path d="M977.4,537.3c-0.2-0.5-0.5-0.9-0.9-0.9c-0.3,0-0.5,0.2-0.5,0.6c0,0.4,0.3,0.6,0.7,0.7c0.7,0.3,1.1,0.6,1.1,1.2
		c0,0.8-0.7,1.2-1.5,1.2c-0.5,0-0.9-0.2-1-0.3s-0.1-0.7-0.2-1.1h0.2c0.2,0.6,0.6,1.1,1.1,1.1c0.3,0,0.6-0.2,0.6-0.6
		c0-0.4-0.2-0.5-0.7-0.7s-1.1-0.5-1.1-1.2c0-0.6,0.5-1.1,1.3-1.1c0.4,0,0.6,0.1,0.8,0.2C977.4,536.6,977.5,537.1,977.4,537.3
		L977.4,537.3z"/>
	<path d="M979,536.5c0.3,0,0.5,0.2,0.5,0.5s-0.2,0.5-0.5,0.5s-0.5-0.2-0.5-0.5S978.7,536.5,979,536.5L979,536.5z M979,540.1
		c-0.3,0-0.5-0.2-0.5-0.5s0.2-0.5,0.5-0.5s0.5,0.2,0.5,0.5C979.5,539.9,979.3,540.1,979,540.1L979,540.1z"/>
	<path d="M980.7,540.4h-0.5l1.9-6.1h0.5L980.7,540.4z"/>
	<path d="M983.6,540.4h-0.5l1.9-6.1h0.5L983.6,540.4z"/>
	<path d="M988.4,537.3c-0.2-0.5-0.5-0.9-0.9-0.9c-0.3,0-0.5,0.2-0.5,0.6c0,0.4,0.3,0.6,0.7,0.7c0.7,0.3,1.1,0.6,1.1,1.2
		c0,0.8-0.7,1.2-1.5,1.2c-0.5,0-0.9-0.2-1-0.3s-0.1-0.7-0.2-1.1h0.2c0.2,0.6,0.6,1.1,1.1,1.1c0.3,0,0.6-0.2,0.6-0.6
		c0-0.4-0.2-0.5-0.7-0.7s-1.1-0.5-1.1-1.2c0-0.6,0.5-1.1,1.3-1.1c0.4,0,0.6,0.1,0.8,0.2C988.4,536.6,988.5,537.1,988.4,537.3
		L988.4,537.3z"/>
	<path d="M991.6,536.8c0.8,0.1,1.2,0.7,1.2,1.3c0,1.4-1.7,2-2.3,2c-0.4,0-0.8-0.2-0.9-0.3c-0.1-0.1-0.2-0.2-0.1-0.3s0.1-0.2,0.2-0.3
		c0.1-0.1,0.1-0.1,0.2,0c0.2,0.2,0.6,0.5,1.1,0.5c0.6,0,1-0.4,1-1.3c0-0.8-0.6-1.1-1.1-1.1c-0.2,0-0.4,0-0.5,0.1l-0.1-0.3
		c0.8-0.2,1.4-0.6,1.4-1.2c0-0.5-0.4-0.8-0.8-0.8c-0.5,0-0.8,0.4-1,0.7l-0.2-0.2l0.4-0.6c0.2-0.3,0.6-0.5,1.1-0.5l0,0
		c0.8,0,1.3,0.5,1.3,1.1c0,0.2-0.1,0.4-0.3,0.6C992,536.4,991.8,536.6,991.6,536.8L991.6,536.8z"/>
	<path d="M994.3,540.1c-0.3,0-0.5-0.2-0.5-0.5s0.2-0.5,0.5-0.5s0.5,0.2,0.5,0.5C994.8,539.9,994.6,540.1,994.3,540.1L994.3,540.1z"
		/>
	<path d="M998.4,540.1c-0.2,0-0.4-0.1-0.4-0.2c-0.1-0.1-0.2-0.2-0.2-0.4c-0.4,0.2-0.8,0.5-1,0.5c-0.7,0-1.1-0.5-1.1-1.1
		c0-0.4,0.2-0.7,0.7-0.8c0.6-0.2,1.2-0.4,1.3-0.6v-0.2c0-0.6-0.3-0.9-0.7-0.9c-0.2,0-0.3,0.1-0.4,0.2c-0.1,0.1-0.2,0.3-0.3,0.6
		c-0.1,0.2-0.1,0.2-0.3,0.2s-0.4-0.2-0.4-0.4c0-0.1,0.1-0.2,0.3-0.4c0.3-0.2,0.8-0.5,1.3-0.6c0.3,0,0.5,0.1,0.7,0.2
		c0.3,0.3,0.4,0.6,0.4,1.1v1.5c0,0.4,0.2,0.5,0.3,0.5s0.2,0,0.3-0.1l0.1,0.2L998.4,540.1z M997.7,537.9c-0.2,0.1-0.5,0.3-0.7,0.3
		c-0.3,0.1-0.5,0.3-0.5,0.6c0,0.5,0.3,0.7,0.6,0.7c0.2,0,0.5-0.1,0.6-0.3L997.7,537.9L997.7,537.9z"/>
	<path d="M1003.4,536.5c-0.5,0.1-0.5,0.1-0.8,0.6c-0.3,0.6-0.8,1.7-1.3,3h-0.2c-0.4-1-0.8-2-1.2-3c-0.2-0.5-0.3-0.5-0.7-0.6v-0.2
		h1.9v0.2c-0.5,0.1-0.5,0.1-0.4,0.5c0.2,0.6,0.6,1.5,0.8,2c0.3-0.7,0.6-1.4,0.8-2c0.1-0.4,0.1-0.5-0.4-0.6v-0.2h1.6L1003.4,536.5
		L1003.4,536.5z"/>
	<path d="M1006.3,540.1c-0.2,0-0.4-0.1-0.4-0.2c-0.1-0.1-0.2-0.2-0.2-0.4c-0.4,0.2-0.8,0.5-1,0.5c-0.7,0-1.1-0.5-1.1-1.1
		c0-0.4,0.2-0.7,0.7-0.8c0.6-0.2,1.2-0.4,1.3-0.6v-0.2c0-0.6-0.3-0.9-0.7-0.9c-0.2,0-0.3,0.1-0.4,0.2c-0.1,0.1-0.2,0.3-0.3,0.6
		c-0.1,0.2-0.1,0.2-0.3,0.2s-0.4-0.2-0.4-0.4c0-0.1,0.1-0.2,0.3-0.4c0.3-0.2,0.8-0.5,1.3-0.6c0.3,0,0.5,0.1,0.7,0.2
		c0.3,0.3,0.4,0.6,0.4,1.1v1.5c0,0.4,0.2,0.5,0.3,0.5s0.2,0,0.3-0.1l0.1,0.2L1006.3,540.1z M1005.6,537.9c-0.2,0.1-0.5,0.3-0.7,0.3
		c-0.3,0.1-0.5,0.3-0.5,0.6c0,0.5,0.3,0.7,0.6,0.7c0.2,0,0.5-0.1,0.6-0.3L1005.6,537.9L1005.6,537.9z"/>
	<path d="M1009.4,536.3c0.2-0.1,0.3-0.1,0.5-0.1c1,0,1.6,0.8,1.6,1.6c0,1.3-1,2.1-2.2,2.3c-0.3,0-0.5-0.1-0.6-0.1v1.1
		c0,0.6,0.1,0.7,0.7,0.7v0.2h-2.1v-0.2c0.6-0.1,0.6-0.1,0.6-0.7v-3.9c0-0.5,0-0.6-0.6-0.6v-0.2c0.4-0.1,0.9-0.2,1.3-0.4v0.7
		L1009.4,536.3z M1008.7,539.3c0.2,0.2,0.5,0.3,0.8,0.3c0.7,0,1.2-0.7,1.2-1.5c0-0.9-0.6-1.4-1.2-1.4c-0.3,0-0.6,0.2-0.8,0.4V539.3z
		"/>
	<path d="M1015.2,539.2c-0.6,0.7-1.2,0.9-1.5,0.9c-1.1,0-1.7-0.9-1.7-1.8c0-0.6,0.2-1.1,0.6-1.5c0.4-0.4,0.8-0.7,1.3-0.7l0,0
		c0.7,0,1.3,0.6,1.3,1.3c0,0.2,0,0.2-0.2,0.3c-0.2,0-1.2,0.1-2.3,0.1c0,1.1,0.7,1.6,1.3,1.6c0.4,0,0.7-0.1,1-0.4L1015.2,539.2z
		 M1013.7,536.5c-0.4,0-0.8,0.3-0.9,1c0.5,0,0.9,0,1.4,0c0.2,0,0.2-0.1,0.2-0.2C1014.5,536.9,1014.2,536.5,1013.7,536.5
		L1013.7,536.5z"/>
	<path d="M1020.1,539.8c-0.2,0-0.9,0.1-1.4,0.3v-0.6l-0.5,0.3c-0.3,0.2-0.6,0.2-0.7,0.2c-0.7,0-1.7-0.6-1.7-1.8s1.1-2.1,2.3-2.1
		c0.1,0,0.4,0,0.6,0.1V535c0-0.6-0.1-0.6-0.7-0.6v-0.2c0.5-0.1,1.1-0.2,1.4-0.3v5.1c0,0.5,0.1,0.5,0.4,0.5h0.2v0.3H1020.1z
		 M1018.6,536.9c-0.2-0.3-0.6-0.4-0.9-0.4c-0.4,0-1.1,0.3-1.1,1.6c0,1,0.7,1.5,1.2,1.5c0.3,0,0.6-0.1,0.8-0.3V536.9z"/>
	<path d="M1020.4,540v-0.2c0.5-0.1,0.6-0.1,0.6-0.7v-1.7c0-0.5,0-0.6-0.5-0.7v-0.2c0.5-0.1,0.9-0.2,1.3-0.3v2.9
		c0,0.6,0.1,0.6,0.6,0.7v0.2H1020.4z M1020.9,535c0-0.3,0.2-0.5,0.5-0.5s0.5,0.2,0.5,0.5c0,0.2-0.2,0.5-0.5,0.5
		C1021.1,535.4,1020.9,535.2,1020.9,535z"/>
	<path d="M1025.6,540.1c-0.2,0-0.4-0.1-0.4-0.2c-0.1-0.1-0.2-0.2-0.2-0.4c-0.4,0.2-0.8,0.5-1,0.5c-0.7,0-1.1-0.5-1.1-1.1
		c0-0.4,0.2-0.7,0.7-0.8c0.6-0.2,1.2-0.4,1.3-0.6v-0.2c0-0.6-0.3-0.9-0.7-0.9c-0.2,0-0.3,0.1-0.4,0.2c-0.1,0.1-0.2,0.3-0.3,0.6
		c-0.1,0.2-0.1,0.2-0.3,0.2s-0.4-0.2-0.4-0.4c0-0.1,0.1-0.2,0.3-0.4c0.3-0.2,0.8-0.5,1.3-0.6c0.3,0,0.5,0.1,0.7,0.2
		c0.3,0.3,0.4,0.6,0.4,1.1v1.5c0,0.4,0.2,0.5,0.3,0.5c0.1,0,0.2,0,0.3-0.1l0.1,0.2L1025.6,540.1z M1024.9,537.9
		c-0.2,0.1-0.5,0.3-0.7,0.3c-0.3,0.1-0.5,0.3-0.5,0.6c0,0.5,0.3,0.7,0.6,0.7c0.2,0,0.5-0.1,0.6-0.3V537.9z"/>
	<path d="M1027.4,540.1c-0.3,0-0.5-0.2-0.5-0.5s0.2-0.5,0.5-0.5s0.5,0.2,0.5,0.5C1027.9,539.9,1027.7,540.1,1027.4,540.1
		L1027.4,540.1z"/>
	<path d="M1032,539.2c-0.4,0.5-1,0.9-1.5,0.9c-1.1,0-1.8-0.9-1.8-1.8c0-0.7,0.3-1.2,0.9-1.7c0.5-0.4,1-0.5,1.3-0.5l0,0
		c0.4,0,0.6,0.1,0.8,0.2c0.1,0.1,0.1,0.2,0.1,0.3c0,0.2-0.2,0.4-0.3,0.4c-0.1,0-0.1,0-0.2-0.1c-0.3-0.3-0.6-0.4-0.9-0.4
		c-0.5,0-1,0.4-1,1.3c0,1.2,0.9,1.6,1.3,1.6s0.7-0.1,1-0.5L1032,539.2z"/>
	<path d="M1034.4,536.2c1.1,0,1.9,0.9,1.9,1.9c0,1.4-1.1,2-1.9,2c-1.2,0-2-0.9-2-1.9C1032.5,536.8,1033.6,536.2,1034.4,536.2
		L1034.4,536.2z M1034.3,536.4c-0.5,0-1,0.5-1,1.5c0,1.1,0.5,1.9,1.2,1.9c0.5,0,1-0.3,1-1.5C1035.5,537.2,1035.1,536.4,1034.3,536.4
		L1034.3,536.4z"/>
	<path d="M1041.8,540v-0.2c0.5-0.1,0.6-0.1,0.6-0.7v-1.4c0-0.6-0.2-1-0.8-1c-0.3,0-0.6,0.2-0.9,0.4c0,0.1,0,0.2,0,0.4v1.6
		c0,0.5,0.1,0.6,0.6,0.6v0.2h-1.9v-0.2c0.5-0.1,0.6-0.1,0.6-0.7v-1.4c0-0.6-0.2-1-0.7-1c-0.3,0-0.7,0.2-0.9,0.4v2
		c0,0.6,0.1,0.6,0.5,0.7v0.2h-1.9v-0.2c0.6-0.1,0.6-0.1,0.6-0.7v-1.7c0-0.5,0-0.6-0.5-0.7v-0.2c0.4-0.1,0.9-0.2,1.3-0.3v0.7
		c0.2-0.1,0.4-0.3,0.6-0.4c0.2-0.1,0.4-0.2,0.7-0.2c0.4,0,0.8,0.3,1,0.7c0.3-0.2,0.5-0.3,0.7-0.5c0.2-0.1,0.4-0.2,0.7-0.2
		c0.7,0,1.1,0.5,1.1,1.3v1.6c0,0.6,0.1,0.6,0.6,0.7v0.2L1041.8,540L1041.8,540z"/>
	<path d="M1044.6,540.4h-0.5l1.9-6.1h0.5L1044.6,540.4z"/>
	<path d="M1049.9,540.1c-0.2,0-0.4-0.1-0.4-0.2c-0.1-0.1-0.2-0.2-0.2-0.4c-0.4,0.2-0.8,0.5-1,0.5c-0.7,0-1.1-0.5-1.1-1.1
		c0-0.4,0.2-0.7,0.7-0.8c0.6-0.2,1.2-0.4,1.3-0.6v-0.2c0-0.6-0.3-0.9-0.7-0.9c-0.2,0-0.3,0.1-0.4,0.2c-0.1,0.1-0.2,0.3-0.3,0.6
		c-0.1,0.2-0.1,0.2-0.3,0.2c-0.2,0-0.4-0.2-0.4-0.4c0-0.1,0.1-0.2,0.3-0.4c0.3-0.2,0.8-0.5,1.3-0.6c0.3,0,0.5,0.1,0.7,0.2
		c0.3,0.3,0.4,0.6,0.4,1.1v1.5c0,0.4,0.2,0.5,0.3,0.5c0.1,0,0.2,0,0.3-0.1l0.1,0.2L1049.9,540.1z M1049.2,537.9
		c-0.2,0.1-0.5,0.3-0.7,0.3c-0.3,0.1-0.5,0.3-0.5,0.6c0,0.5,0.3,0.7,0.6,0.7c0.2,0,0.5-0.1,0.6-0.3V537.9z"/>
	<path d="M1054.9,536.5c-0.5,0.1-0.5,0.1-0.8,0.6c-0.3,0.6-0.8,1.7-1.3,3h-0.2c-0.4-1-0.8-2-1.2-3c-0.2-0.5-0.3-0.5-0.7-0.6v-0.2
		h1.9v0.2c-0.5,0.1-0.5,0.1-0.4,0.5c0.2,0.6,0.6,1.5,0.8,2c0.3-0.7,0.6-1.4,0.8-2c0.1-0.4,0.1-0.5-0.4-0.6v-0.2h1.6v0.3H1054.9z"/>
	<path d="M1057.8,540.1c-0.2,0-0.4-0.1-0.4-0.2c-0.1-0.1-0.2-0.2-0.2-0.4c-0.4,0.2-0.8,0.5-1,0.5c-0.7,0-1.1-0.5-1.1-1.1
		c0-0.4,0.2-0.7,0.7-0.8c0.6-0.2,1.2-0.4,1.3-0.6v-0.2c0-0.6-0.3-0.9-0.7-0.9c-0.2,0-0.3,0.1-0.4,0.2c-0.1,0.1-0.2,0.3-0.3,0.6
		c-0.1,0.2-0.1,0.2-0.3,0.2c-0.2,0-0.4-0.2-0.4-0.4c0-0.1,0.1-0.2,0.3-0.4c0.3-0.2,0.8-0.5,1.3-0.6c0.3,0,0.5,0.1,0.7,0.2
		c0.3,0.3,0.4,0.6,0.4,1.1v1.5c0,0.4,0.2,0.5,0.3,0.5c0.1,0,0.2,0,0.3-0.1l0.1,0.2L1057.8,540.1z M1057.1,537.9
		c-0.2,0.1-0.5,0.3-0.7,0.3c-0.3,0.1-0.5,0.3-0.5,0.6c0,0.5,0.3,0.7,0.6,0.7c0.2,0,0.5-0.1,0.6-0.3V537.9z"/>
	<path d="M1060.9,536.3c0.2-0.1,0.3-0.1,0.5-0.1c1,0,1.6,0.8,1.6,1.6c0,1.3-1,2.1-2.2,2.3c-0.3,0-0.5-0.1-0.6-0.1v1.1
		c0,0.6,0.1,0.7,0.7,0.7v0.2h-2.1v-0.2c0.6-0.1,0.6-0.1,0.6-0.7v-3.9c0-0.5,0-0.6-0.6-0.6v-0.2c0.4-0.1,0.9-0.2,1.3-0.4v0.7
		L1060.9,536.3z M1060.2,539.3c0.2,0.2,0.5,0.3,0.8,0.3c0.7,0,1.2-0.7,1.2-1.5c0-0.9-0.6-1.4-1.2-1.4c-0.3,0-0.6,0.2-0.8,0.4V539.3z
		"/>
	<path d="M1066.7,539.2c-0.6,0.7-1.2,0.9-1.5,0.9c-1.1,0-1.7-0.9-1.7-1.8c0-0.6,0.2-1.1,0.6-1.5s0.8-0.7,1.3-0.7l0,0
		c0.7,0,1.3,0.6,1.3,1.3c0,0.2,0,0.2-0.2,0.3c-0.2,0-1.2,0.1-2.3,0.1c0,1.1,0.7,1.6,1.3,1.6c0.4,0,0.7-0.1,1-0.4L1066.7,539.2z
		 M1065.2,536.5c-0.4,0-0.8,0.3-0.9,1c0.5,0,0.9,0,1.4,0c0.2,0,0.2-0.1,0.2-0.2C1066,536.9,1065.7,536.5,1065.2,536.5L1065.2,536.5z
		"/>
	<path d="M1071.6,539.8c-0.2,0-0.9,0.1-1.4,0.3v-0.6l-0.5,0.3c-0.3,0.2-0.6,0.2-0.7,0.2c-0.7,0-1.7-0.6-1.7-1.8s1.1-2.1,2.3-2.1
		c0.1,0,0.4,0,0.6,0.1V535c0-0.6-0.1-0.6-0.7-0.6v-0.2c0.5-0.1,1.1-0.2,1.4-0.3v5.1c0,0.5,0.1,0.5,0.4,0.5h0.2L1071.6,539.8
		L1071.6,539.8z M1070.2,536.9c-0.2-0.3-0.6-0.4-0.9-0.4c-0.4,0-1.1,0.3-1.1,1.6c0,1,0.7,1.5,1.2,1.5c0.3,0,0.6-0.1,0.8-0.3V536.9z"
		/>
	<path d="M1071.9,540v-0.2c0.5-0.1,0.6-0.1,0.6-0.7v-1.7c0-0.5,0-0.6-0.5-0.7v-0.2c0.5-0.1,0.9-0.2,1.3-0.3v2.9
		c0,0.6,0.1,0.6,0.6,0.7v0.2H1071.9z M1072.4,535c0-0.3,0.2-0.5,0.5-0.5s0.5,0.2,0.5,0.5c0,0.2-0.2,0.5-0.5,0.5
		C1072.6,535.4,1072.4,535.2,1072.4,535z"/>
	<path d="M1077.1,540.1c-0.2,0-0.4-0.1-0.4-0.2c-0.1-0.1-0.2-0.2-0.2-0.4c-0.4,0.2-0.8,0.5-1,0.5c-0.7,0-1.1-0.5-1.1-1.1
		c0-0.4,0.2-0.7,0.7-0.8c0.6-0.2,1.2-0.4,1.3-0.6v-0.2c0-0.6-0.3-0.9-0.7-0.9c-0.2,0-0.3,0.1-0.4,0.2c-0.1,0.1-0.2,0.3-0.3,0.6
		c-0.1,0.2-0.1,0.2-0.3,0.2c-0.2,0-0.4-0.2-0.4-0.4c0-0.1,0.1-0.2,0.3-0.4c0.3-0.2,0.8-0.5,1.3-0.6c0.3,0,0.5,0.1,0.7,0.2
		c0.3,0.3,0.4,0.6,0.4,1.1v1.5c0,0.4,0.2,0.5,0.3,0.5c0.1,0,0.2,0,0.3-0.1l0.1,0.2L1077.1,540.1z M1076.4,537.9
		c-0.2,0.1-0.5,0.3-0.7,0.3c-0.3,0.1-0.5,0.3-0.5,0.6c0,0.5,0.3,0.7,0.6,0.7c0.2,0,0.5-0.1,0.6-0.3V537.9z"/>
	<path d="M1080.5,538.3h-2l0.1-0.5h2.1L1080.5,538.3z"/>
	<path d="M1082,540v-0.2c0.8-0.1,0.8-0.1,0.8-0.8v-3.2c0-0.4,0-0.5-0.4-0.5h-0.5V535c0.6-0.1,1.1-0.3,1.6-0.4v4.4
		c0,0.6,0.1,0.7,0.8,0.8v0.2H1082z"/>
	<path d="M1088.5,538.5v0.6c0,0.6,0,0.6,0.7,0.7v0.2h-2.3v-0.2c0.8-0.1,0.8-0.1,0.8-0.7v-0.6h-2.3v-0.3c0.9-1.2,1.8-2.5,2.6-3.6h0.4
		v3.5h0.8v0.4L1088.5,538.5L1088.5,538.5z M1087.7,535.6L1087.7,535.6c-0.6,0.7-1.1,1.5-1.7,2.5h1.7V535.6z"/>
	<path d="M1091.6,534.6c1.3,0,1.8,1.4,1.8,2.8c0,1.2-0.5,2.8-1.8,2.8s-1.8-1.4-1.8-2.8C1089.8,536.1,1090.3,534.6,1091.6,534.6
		L1091.6,534.6z M1091.6,534.9c-0.8,0-1,1.3-1,2.4c0,1.2,0.2,2.5,1,2.5s0.9-1.3,0.9-2.5C1092.6,536.1,1092.4,534.9,1091.6,534.9
		L1091.6,534.9z"/>
	<path d="M1097.7,538.8c-0.1,0.4-0.2,0.8-0.3,1.2h-3.3v-0.2c0.5-0.5,1-0.9,1.4-1.4c0.5-0.6,1.1-1.3,1.1-2s-0.4-1.1-1-1.1
		s-1,0.5-1.2,0.8l-0.2-0.2l0.5-0.7c0.3-0.3,0.7-0.5,1.2-0.5c0.8,0,1.5,0.6,1.5,1.5c0,0.7-0.3,1.2-1.2,2.1l-1.2,1.2h1.6
		c0.5,0,0.6,0,0.9-0.6L1097.7,538.8z"/>
	<path d="M1098.7,540.4h-0.5l1.9-6.1h0.5L1098.7,540.4z"/>
	<path d="M1101.8,540v-0.2c0.8-0.1,0.8-0.1,0.8-0.8v-3.2c0-0.4,0-0.5-0.4-0.5h-0.5V535c0.6-0.1,1.1-0.3,1.6-0.4v4.4
		c0,0.6,0.1,0.7,0.8,0.8v0.2H1101.8z"/>
	<path d="M1109,538.8c-0.1,0.4-0.2,0.8-0.3,1.2h-3.3v-0.2c0.5-0.5,1-0.9,1.4-1.4c0.5-0.6,1.1-1.3,1.1-2s-0.4-1.1-1-1.1
		s-1,0.5-1.2,0.8l-0.2-0.2l0.5-0.7c0.3-0.3,0.7-0.5,1.2-0.5c0.8,0,1.5,0.6,1.5,1.5c0,0.7-0.3,1.2-1.2,2.1l-1.2,1.2h1.6
		c0.5,0,0.6,0,0.9-0.6L1109,538.8z"/>
	<path d="M1110.1,540.4h-0.5l1.9-6.1h0.5L1110.1,540.4z"/>
	<path d="M1116.4,535.8c-0.1-0.3-0.1-0.5-0.3-0.7c-0.2-0.2-0.3-0.3-1-0.3h-0.6c-0.3,0-0.3,0-0.3,0.3v2h0.9c0.8,0,0.8-0.1,1-0.6h0.3
		v1.7h-0.3c-0.1-0.6-0.2-0.7-1-0.7h-0.9v1.5c0,0.8,0.1,0.8,0.9,0.9v0.2h-2.5v-0.2c0.7-0.1,0.8-0.1,0.8-0.9v-3.3
		c0-0.8-0.1-0.8-0.8-0.8v-0.3h3.9c0,0.3,0.1,0.9,0.1,1.3L1116.4,535.8z"/>
	<path d="M1120,540.1c-0.2,0-0.4-0.1-0.4-0.2c-0.1-0.1-0.2-0.2-0.2-0.4c-0.4,0.2-0.8,0.5-1,0.5c-0.7,0-1.1-0.5-1.1-1.1
		c0-0.4,0.2-0.7,0.7-0.8c0.6-0.2,1.2-0.4,1.3-0.6v-0.2c0-0.6-0.3-0.9-0.7-0.9c-0.2,0-0.3,0.1-0.4,0.2c-0.1,0.1-0.2,0.3-0.3,0.6
		c-0.1,0.2-0.1,0.2-0.3,0.2c-0.2,0-0.4-0.2-0.4-0.4c0-0.1,0.1-0.2,0.3-0.4c0.3-0.2,0.8-0.5,1.3-0.6c0.3,0,0.5,0.1,0.7,0.2
		c0.3,0.3,0.4,0.6,0.4,1.1v1.5c0,0.4,0.2,0.5,0.3,0.5c0.1,0,0.2,0,0.3-0.1l0.1,0.2L1120,540.1z M1119.4,537.9
		c-0.2,0.1-0.5,0.3-0.7,0.3c-0.3,0.1-0.5,0.3-0.5,0.6c0,0.5,0.3,0.7,0.6,0.7c0.2,0,0.5-0.1,0.6-0.3V537.9z"/>
	<path d="M1122.5,537.1c0.3-0.5,0.6-0.9,1-0.9c0.3,0,0.5,0.2,0.5,0.4s-0.1,0.4-0.3,0.5c-0.1,0-0.2,0-0.2,0c-0.1-0.1-0.2-0.2-0.4-0.2
		c-0.2,0-0.5,0.3-0.7,0.7v1.5c0,0.6,0,0.6,0.7,0.7v0.2h-2.1v-0.2c0.5-0.1,0.6-0.1,0.6-0.7v-1.8c0-0.5,0-0.6-0.5-0.7v-0.2
		c0.4-0.1,0.8-0.2,1.3-0.4L1122.5,537.1L1122.5,537.1z"/>
	<path d="M1127.8,538.9c-0.1,0.4-0.3,0.8-0.4,1.1h-2.9l-0.1-0.1c0.8-1.1,1.4-2.2,2.2-3.3c-0.3,0-0.6,0-0.7,0c-0.6,0-0.8,0.1-1,0.6
		l-0.1,0.3l-0.2-0.1c0.1-0.4,0.2-0.9,0.3-1.3h0.2c0.1,0.1,0.2,0.2,0.5,0.2h2l0.1,0.1c-0.7,1.1-1.4,2.2-2.1,3.3h0.8
		c0.7,0,0.9-0.2,1.2-0.7l0.1-0.2L1127.8,538.9z"/>
	<path d="M1130.9,540.1c-0.2,0-0.4-0.1-0.4-0.2c-0.1-0.1-0.2-0.2-0.2-0.4c-0.4,0.2-0.8,0.5-1,0.5c-0.7,0-1.1-0.5-1.1-1.1
		c0-0.4,0.2-0.7,0.7-0.8c0.6-0.2,1.2-0.4,1.3-0.6v-0.2c0-0.6-0.3-0.9-0.7-0.9c-0.2,0-0.3,0.1-0.4,0.2c-0.1,0.1-0.2,0.3-0.3,0.6
		c-0.1,0.2-0.1,0.2-0.3,0.2c-0.2,0-0.4-0.2-0.4-0.4c0-0.1,0.1-0.2,0.3-0.4c0.3-0.2,0.8-0.5,1.3-0.6c0.3,0,0.5,0.1,0.7,0.2
		c0.3,0.3,0.4,0.6,0.4,1.1v1.5c0,0.4,0.2,0.5,0.3,0.5c0.1,0,0.2,0,0.3-0.1l0.1,0.2L1130.9,540.1z M1130.2,537.9
		c-0.2,0.1-0.5,0.3-0.7,0.3c-0.3,0.1-0.5,0.3-0.5,0.6c0,0.5,0.3,0.7,0.6,0.7c0.2,0,0.5-0.1,0.6-0.3V537.9z"/>
	<path d="M1136.3,539.8c-0.2,0-0.9,0.1-1.4,0.3v-0.6l-0.5,0.3c-0.3,0.2-0.6,0.2-0.7,0.2c-0.7,0-1.7-0.6-1.7-1.8s1.1-2.1,2.3-2.1
		c0.1,0,0.4,0,0.6,0.1V535c0-0.6-0.1-0.6-0.7-0.6v-0.2c0.5-0.1,1.1-0.2,1.4-0.3v5.1c0,0.5,0.1,0.5,0.4,0.5h0.2L1136.3,539.8
		L1136.3,539.8z M1134.9,536.9c-0.2-0.3-0.6-0.4-0.9-0.4c-0.4,0-1.1,0.3-1.1,1.6c0,1,0.7,1.5,1.2,1.5c0.3,0,0.6-0.1,0.8-0.3V536.9z"
		/>
	<path d="M1138.1,534.6c0.9,0,1.3,0.9,1.3,1.5c0,0.7-0.4,1.5-1.3,1.5s-1.3-0.9-1.3-1.5C1136.8,535.4,1137.2,534.6,1138.1,534.6
		L1138.1,534.6z M1138.1,534.8c-0.5,0-0.6,0.8-0.6,1.3s0.1,1.3,0.6,1.3s0.6-0.9,0.6-1.3S1138.7,534.8,1138.1,534.8L1138.1,534.8z
		 M1138.1,540.3l-0.3-0.2l3.5-5.6l0.3,0.2L1138.1,540.3z M1141.4,537c0.9,0,1.3,0.9,1.3,1.5c0,0.7-0.4,1.5-1.3,1.5s-1.3-0.9-1.3-1.5
		S1140.5,537,1141.4,537L1141.4,537z M1141.4,537.3c-0.5,0-0.6,0.8-0.6,1.3c0,0.4,0.1,1.3,0.6,1.3s0.6-0.9,0.6-1.3
		C1142,538.1,1141.9,537.3,1141.4,537.3L1141.4,537.3z"/>
	<path d="M1147,538.8c-0.1,0.4-0.2,0.8-0.3,1.2h-3.3v-0.2c0.5-0.5,1-0.9,1.4-1.4c0.5-0.6,1.1-1.3,1.1-2s-0.4-1.1-1-1.1
		s-1,0.5-1.2,0.8l-0.2-0.2l0.5-0.7c0.3-0.3,0.7-0.5,1.2-0.5c0.8,0,1.5,0.6,1.5,1.5c0,0.7-0.3,1.2-1.2,2.1l-1.2,1.2h1.6
		c0.5,0,0.6,0,0.9-0.6L1147,538.8z"/>
	<path d="M1149.4,534.6c1.3,0,1.8,1.4,1.8,2.8c0,1.2-0.5,2.8-1.8,2.8s-1.8-1.4-1.8-2.8C1147.6,536.1,1148.1,534.6,1149.4,534.6
		L1149.4,534.6z M1149.4,534.9c-0.8,0-1,1.3-1,2.4c0,1.2,0.2,2.5,1,2.5s0.9-1.3,0.9-2.5C1150.4,536.1,1150.1,534.9,1149.4,534.9
		L1149.4,534.9z"/>
	<path d="M1155.6,535.8c-0.1-0.3-0.1-0.5-0.3-0.7c-0.2-0.2-0.3-0.3-1-0.3h-0.6c-0.3,0-0.3,0-0.3,0.3v2h0.9c0.8,0,0.8-0.1,1-0.6h0.3
		v1.7h-0.3c-0.1-0.6-0.2-0.7-1-0.7h-0.9v1.5c0,0.8,0.1,0.8,0.9,0.9v0.2h-2.5v-0.2c0.7-0.1,0.8-0.1,0.8-0.9v-3.3
		c0-0.8-0.1-0.8-0.8-0.8v-0.3h3.9c0,0.3,0.1,0.9,0.1,1.3L1155.6,535.8z"/>
	<path d="M1159.3,540.1c-0.2,0-0.4-0.1-0.4-0.2c-0.1-0.1-0.2-0.2-0.2-0.4c-0.4,0.2-0.8,0.5-1,0.5c-0.7,0-1.1-0.5-1.1-1.1
		c0-0.4,0.2-0.7,0.7-0.8c0.6-0.2,1.2-0.4,1.3-0.6v-0.2c0-0.6-0.3-0.9-0.7-0.9c-0.2,0-0.3,0.1-0.4,0.2c-0.1,0.1-0.2,0.3-0.3,0.6
		c-0.1,0.2-0.1,0.2-0.3,0.2c-0.2,0-0.4-0.2-0.4-0.4c0-0.1,0.1-0.2,0.3-0.4c0.3-0.2,0.8-0.5,1.3-0.6c0.3,0,0.5,0.1,0.7,0.2
		c0.3,0.3,0.4,0.6,0.4,1.1v1.5c0,0.4,0.2,0.5,0.3,0.5c0.1,0,0.2,0,0.3-0.1l0.1,0.2L1159.3,540.1z M1158.6,537.9
		c-0.2,0.1-0.5,0.3-0.7,0.3c-0.3,0.1-0.5,0.3-0.5,0.6c0,0.5,0.3,0.7,0.6,0.7c0.2,0,0.5-0.1,0.6-0.3V537.9z"/>
	<path d="M1161.8,537.1c0.3-0.5,0.6-0.9,1-0.9c0.3,0,0.5,0.2,0.5,0.4s-0.1,0.4-0.3,0.5c-0.1,0-0.2,0-0.2,0c-0.1-0.1-0.2-0.2-0.4-0.2
		c-0.2,0-0.5,0.3-0.7,0.7v1.5c0,0.6,0,0.6,0.7,0.7v0.2h-2.1v-0.2c0.5-0.1,0.6-0.1,0.6-0.7v-1.8c0-0.5,0-0.6-0.5-0.7v-0.2
		c0.4-0.1,0.8-0.2,1.3-0.4L1161.8,537.1L1161.8,537.1z"/>
	<path d="M1167.1,538.9c-0.1,0.4-0.3,0.8-0.4,1.1h-2.9l-0.1-0.1c0.8-1.1,1.4-2.2,2.2-3.3c-0.3,0-0.6,0-0.7,0c-0.6,0-0.8,0.1-1,0.6
		l-0.1,0.3l-0.2-0.1c0.1-0.4,0.2-0.9,0.3-1.3h0.2c0.1,0.1,0.2,0.2,0.5,0.2h2l0.1,0.1c-0.7,1.1-1.4,2.2-2.1,3.3h0.8
		c0.7,0,0.9-0.2,1.2-0.7l0.1-0.2L1167.1,538.9z"/>
	<path d="M1167.4,540v-0.2c0.5-0.1,0.6-0.1,0.6-0.7v-1.7c0-0.5,0-0.6-0.5-0.7v-0.2c0.5-0.1,0.9-0.2,1.3-0.3v2.9
		c0,0.6,0.1,0.6,0.6,0.7v0.2H1167.4z M1167.8,535c0-0.3,0.2-0.5,0.5-0.5s0.5,0.2,0.5,0.5c0,0.2-0.2,0.5-0.5,0.5
		C1168.1,535.4,1167.8,535.2,1167.8,535z"/>
	<path d="M1172.3,540v-0.2c0.5-0.1,0.6-0.1,0.6-0.7v-1.4c0-0.6-0.2-1-0.8-1c-0.3,0-0.7,0.2-0.9,0.4v2c0,0.6,0,0.6,0.6,0.7v0.2h-1.9
		v-0.2c0.6-0.1,0.6-0.1,0.6-0.7v-1.7c0-0.6-0.1-0.6-0.5-0.7v-0.2c0.4-0.1,0.9-0.2,1.3-0.3v0.7c0.2-0.1,0.4-0.3,0.6-0.4
		c0.2-0.2,0.5-0.3,0.7-0.3c0.7,0,1.1,0.5,1.1,1.3v1.6c0,0.6,0.1,0.6,0.6,0.7v0.2L1172.3,540L1172.3,540z"/>
	<path d="M1176,534.6c0.9,0,1.3,0.9,1.3,1.5c0,0.7-0.4,1.5-1.3,1.5s-1.3-0.9-1.3-1.5C1174.8,535.4,1175.1,534.6,1176,534.6
		L1176,534.6z M1176,534.8c-0.5,0-0.6,0.8-0.6,1.3s0.1,1.3,0.6,1.3s0.6-0.9,0.6-1.3S1176.6,534.8,1176,534.8L1176,534.8z
		 M1176,540.3l-0.3-0.2l3.5-5.6l0.3,0.2L1176,540.3z M1179.3,537c0.9,0,1.3,0.9,1.3,1.5c0,0.7-0.4,1.5-1.3,1.5s-1.3-0.9-1.3-1.5
		S1178.4,537,1179.3,537L1179.3,537z M1179.3,537.3c-0.5,0-0.6,0.8-0.6,1.3c0,0.4,0.1,1.3,0.6,1.3s0.6-0.9,0.6-1.3
		C1179.9,538.1,1179.8,537.3,1179.3,537.3L1179.3,537.3z"/>
	<path d="M1184.9,538.8c-0.1,0.4-0.2,0.8-0.3,1.2h-3.3v-0.2c0.5-0.5,1-0.9,1.4-1.4c0.5-0.6,1.1-1.3,1.1-2s-0.4-1.1-1-1.1
		s-1,0.5-1.2,0.8l-0.2-0.2l0.5-0.7c0.3-0.3,0.7-0.5,1.2-0.5c0.8,0,1.5,0.6,1.5,1.5c0,0.7-0.3,1.2-1.2,2.1l-1.2,1.2h1.6
		c0.5,0,0.6,0,0.9-0.6L1184.9,538.8z"/>
	<path d="M1187.3,534.6c1.3,0,1.8,1.4,1.8,2.8c0,1.2-0.5,2.8-1.8,2.8s-1.8-1.4-1.8-2.8C1185.5,536.1,1186,534.6,1187.3,534.6
		L1187.3,534.6z M1187.3,534.9c-0.8,0-1,1.3-1,2.4c0,1.2,0.2,2.5,1,2.5s0.9-1.3,0.9-2.5C1188.3,536.1,1188.1,534.9,1187.3,534.9
		L1187.3,534.9z"/>
	<path d="M1191.9,538.3h-2l0.1-0.5h2.1L1191.9,538.3z"/>
	<path d="M1194.3,534.6c0.9,0,1.3,0.9,1.3,1.5c0,0.7-0.4,1.5-1.3,1.5s-1.3-0.9-1.3-1.5C1193,535.4,1193.4,534.6,1194.3,534.6
		L1194.3,534.6z M1194.3,534.8c-0.5,0-0.6,0.8-0.6,1.3s0.1,1.3,0.6,1.3s0.6-0.9,0.6-1.3S1194.8,534.8,1194.3,534.8L1194.3,534.8z
		 M1194.2,540.3l-0.3-0.2l3.5-5.6l0.3,0.2L1194.2,540.3z M1197.5,537c0.9,0,1.3,0.9,1.3,1.5c0,0.7-0.4,1.5-1.3,1.5s-1.3-0.9-1.3-1.5
		S1196.6,537,1197.5,537L1197.5,537z M1197.5,537.3c-0.5,0-0.6,0.8-0.6,1.3c0,0.4,0.1,1.3,0.6,1.3s0.6-0.9,0.6-1.3
		C1198.1,538.1,1198.1,537.3,1197.5,537.3L1197.5,537.3z"/>
	<path d="M1203.1,538.8c-0.1,0.4-0.2,0.8-0.3,1.2h-3.3v-0.2c0.5-0.5,1-0.9,1.4-1.4c0.5-0.6,1.1-1.3,1.1-2s-0.4-1.1-1-1.1
		s-1,0.5-1.2,0.8l-0.2-0.2l0.5-0.7c0.3-0.3,0.7-0.5,1.2-0.5c0.8,0,1.5,0.6,1.5,1.5c0,0.7-0.3,1.2-1.2,2.1l-1.2,1.2h1.6
		c0.5,0,0.6,0,0.9-0.6L1203.1,538.8z"/>
	<path d="M1205.6,534.6c1.3,0,1.8,1.4,1.8,2.8c0,1.2-0.5,2.8-1.8,2.8s-1.8-1.4-1.8-2.8C1203.7,536.1,1204.2,534.6,1205.6,534.6
		L1205.6,534.6z M1205.5,534.9c-0.8,0-1,1.3-1,2.4c0,1.2,0.2,2.5,1,2.5s0.9-1.3,0.9-2.5C1206.5,536.1,1206.3,534.9,1205.5,534.9
		L1205.5,534.9z"/>
	<path d="M1213.5,538.5c-0.1,0.4-0.4,1.1-0.5,1.4c-0.3,0.1-1,0.2-1.7,0.2c-2.3,0-3.3-1.5-3.3-2.8c0-1.8,1.5-3,3.5-3
		c0.8,0,1.4,0.2,1.6,0.2c0.1,0.5,0.1,0.9,0.2,1.3l-0.3,0.1c-0.2-0.9-0.8-1.3-1.8-1.3c-1.5,0-2.3,1.2-2.3,2.5c0,1.6,1,2.7,2.4,2.7
		c0.9,0,1.4-0.5,1.9-1.4L1213.5,538.5z"/>
	<path d="M1216.3,540v-0.2c0.5-0.1,0.6-0.1,0.6-0.7v-1.4c0-0.7-0.3-1-0.8-1c-0.3,0-0.6,0.2-0.9,0.4v2c0,0.5,0.1,0.6,0.6,0.7v0.2
		h-1.9v-0.2c0.5-0.1,0.6-0.1,0.6-0.7V535c0-0.5,0-0.6-0.6-0.6v-0.2c0.4-0.1,1-0.2,1.3-0.3v2.9c0.3-0.3,0.8-0.6,1.2-0.6
		c0.7,0,1.2,0.4,1.2,1.5v1.5c0,0.6,0.1,0.6,0.6,0.7v0.2h-1.9V540z"/>
	<path d="M1221.9,539.2c-0.6,0.7-1.2,0.9-1.5,0.9c-1.1,0-1.7-0.9-1.7-1.8c0-0.6,0.2-1.1,0.6-1.5s0.8-0.7,1.3-0.7l0,0
		c0.7,0,1.3,0.6,1.3,1.3c0,0.2,0,0.2-0.2,0.3c-0.2,0-1.2,0.1-2.3,0.1c0,1.1,0.7,1.6,1.3,1.6c0.4,0,0.7-0.1,1-0.4L1221.9,539.2z
		 M1220.4,536.5c-0.4,0-0.8,0.3-0.9,1c0.5,0,0.9,0,1.4,0c0.2,0,0.2-0.1,0.2-0.2C1221.1,536.9,1220.8,536.5,1220.4,536.5
		L1220.4,536.5z"/>
	<path d="M1224.7,537.3c-0.2-0.5-0.5-0.9-0.9-0.9c-0.3,0-0.5,0.2-0.5,0.6c0,0.4,0.3,0.6,0.7,0.7c0.7,0.3,1.1,0.6,1.1,1.2
		c0,0.8-0.7,1.2-1.5,1.2c-0.5,0-0.9-0.2-1-0.3s-0.1-0.7-0.2-1.1h0.2c0.2,0.6,0.6,1.1,1.1,1.1c0.3,0,0.6-0.2,0.6-0.6
		c0-0.4-0.2-0.5-0.7-0.7s-1.1-0.5-1.1-1.2c0-0.6,0.5-1.1,1.3-1.1c0.4,0,0.6,0.1,0.8,0.2C1224.7,536.6,1224.8,537.1,1224.7,537.3
		L1224.7,537.3z"/>
	<path d="M1228,540v-0.2c0.5-0.1,0.6-0.1,0.6-0.7v-1.4c0-0.7-0.3-1-0.8-1c-0.3,0-0.6,0.2-0.9,0.4v2c0,0.5,0.1,0.6,0.6,0.7v0.2h-1.9
		v-0.2c0.5-0.1,0.6-0.1,0.6-0.7V535c0-0.5,0-0.6-0.6-0.6v-0.2c0.4-0.1,1-0.2,1.3-0.3v2.9c0.3-0.3,0.8-0.6,1.2-0.6
		c0.7,0,1.2,0.4,1.2,1.5v1.5c0,0.6,0.1,0.6,0.6,0.7v0.2h-1.9V540z"/>
	<path d="M1235.2,540v-0.2c0.5-0.1,0.6-0.1,0.6-0.7v-1.4c0-0.6-0.2-1-0.8-1c-0.3,0-0.6,0.2-0.9,0.4c0,0.1,0,0.2,0,0.4v1.6
		c0,0.5,0.1,0.6,0.6,0.6v0.2h-1.9v-0.2c0.5-0.1,0.6-0.1,0.6-0.7v-1.4c0-0.6-0.2-1-0.7-1c-0.3,0-0.7,0.2-0.9,0.4v2
		c0,0.6,0.1,0.6,0.5,0.7v0.2h-1.9v-0.2c0.6-0.1,0.6-0.1,0.6-0.7v-1.7c0-0.5,0-0.6-0.5-0.7v-0.2c0.4-0.1,0.9-0.2,1.3-0.3v0.7
		c0.2-0.1,0.4-0.3,0.6-0.4c0.2-0.1,0.4-0.2,0.7-0.2c0.4,0,0.8,0.3,1,0.7c0.3-0.2,0.5-0.3,0.7-0.5c0.2-0.1,0.4-0.2,0.7-0.2
		c0.7,0,1.1,0.5,1.1,1.3v1.6c0,0.6,0.1,0.6,0.6,0.7v0.2L1235.2,540L1235.2,540z"/>
	<path d="M1240.3,540.1c-0.2,0-0.4-0.1-0.4-0.2c-0.1-0.1-0.2-0.2-0.2-0.4c-0.4,0.2-0.8,0.5-1,0.5c-0.7,0-1.1-0.5-1.1-1.1
		c0-0.4,0.2-0.7,0.7-0.8c0.6-0.2,1.2-0.4,1.3-0.6v-0.2c0-0.6-0.3-0.9-0.7-0.9c-0.2,0-0.3,0.1-0.4,0.2c-0.1,0.1-0.2,0.3-0.3,0.6
		c-0.1,0.2-0.1,0.2-0.3,0.2c-0.2,0-0.4-0.2-0.4-0.4c0-0.1,0.1-0.2,0.3-0.4c0.3-0.2,0.8-0.5,1.3-0.6c0.3,0,0.5,0.1,0.7,0.2
		c0.3,0.3,0.4,0.6,0.4,1.1v1.5c0,0.4,0.2,0.5,0.3,0.5c0.1,0,0.2,0,0.3-0.1l0.1,0.2L1240.3,540.1z M1239.6,537.9
		c-0.2,0.1-0.5,0.3-0.7,0.3c-0.3,0.1-0.5,0.3-0.5,0.6c0,0.5,0.3,0.7,0.6,0.7c0.2,0,0.5-0.1,0.6-0.3V537.9z"/>
	<path d="M1243.2,540c-0.2,0.1-0.3,0.1-0.4,0.1c-0.6,0-0.9-0.3-0.9-1v-2.5h-0.6v-0.1l0.2-0.3h0.4v-0.6l0.6-0.6h0.1v1.2h1
		c0.1,0.1,0.1,0.3-0.1,0.4h-0.9v2.2c0,0.7,0.3,0.8,0.5,0.8s0.4-0.1,0.5-0.1l0.1,0.2L1243.2,540z"/>
	<path d="M1244.8,540.1c-0.3,0-0.5-0.2-0.5-0.5s0.2-0.5,0.5-0.5s0.5,0.2,0.5,0.5C1245.4,539.9,1245.2,540.1,1244.8,540.1
		L1244.8,540.1z"/>
	<path d="M1251,540v-0.2c0.5-0.1,0.6-0.1,0.6-0.7v-1.4c0-0.6-0.2-1-0.8-1c-0.3,0-0.6,0.2-0.9,0.4c0,0.1,0,0.2,0,0.4v1.6
		c0,0.5,0.1,0.6,0.6,0.6v0.2h-1.9v-0.2c0.5-0.1,0.6-0.1,0.6-0.7v-1.4c0-0.6-0.2-1-0.7-1c-0.3,0-0.7,0.2-0.9,0.4v2
		c0,0.6,0.1,0.6,0.5,0.7v0.2h-1.9v-0.2c0.6-0.1,0.6-0.1,0.6-0.7v-1.7c0-0.5,0-0.6-0.5-0.7v-0.2c0.4-0.1,0.9-0.2,1.3-0.3v0.7
		c0.2-0.1,0.4-0.3,0.6-0.4c0.2-0.1,0.4-0.2,0.7-0.2c0.4,0,0.8,0.3,1,0.7c0.3-0.2,0.5-0.3,0.7-0.5c0.2-0.1,0.4-0.2,0.7-0.2
		c0.7,0,1.1,0.5,1.1,1.3v1.6c0,0.6,0.1,0.6,0.6,0.7v0.2L1251,540L1251,540z"/>
	<path d="M1255.4,536.3c0.2-0.1,0.3-0.1,0.5-0.1c1,0,1.6,0.8,1.6,1.6c0,1.3-1,2.1-2.2,2.3c-0.3,0-0.5-0.1-0.6-0.1v1.1
		c0,0.6,0.1,0.7,0.7,0.7v0.2h-2.1v-0.2c0.6-0.1,0.6-0.1,0.6-0.7v-3.9c0-0.5,0-0.6-0.6-0.6v-0.2c0.4-0.1,0.9-0.2,1.3-0.4v0.7
		L1255.4,536.3z M1254.6,539.3c0.2,0.2,0.5,0.3,0.8,0.3c0.7,0,1.2-0.7,1.2-1.5c0-0.9-0.6-1.4-1.2-1.4c-0.3,0-0.6,0.2-0.8,0.4V539.3z
		"/>
	<path d="M1260.3,536.8c0.8,0.1,1.2,0.7,1.2,1.3c0,1.4-1.7,2-2.3,2c-0.4,0-0.8-0.2-0.9-0.3s-0.2-0.2-0.1-0.3s0.1-0.2,0.2-0.3
		s0.1-0.1,0.2,0c0.2,0.2,0.6,0.5,1.1,0.5c0.6,0,1-0.4,1-1.3c0-0.8-0.6-1.1-1.1-1.1c-0.2,0-0.4,0-0.5,0.1l-0.1-0.3
		c0.8-0.2,1.4-0.6,1.4-1.2c0-0.5-0.4-0.8-0.8-0.8c-0.5,0-0.8,0.4-1,0.7l-0.2-0.2l0.4-0.6c0.2-0.3,0.6-0.5,1.1-0.5l0,0
		c0.8,0,1.3,0.5,1.3,1.1c0,0.2-0.1,0.4-0.3,0.6C1260.7,536.4,1260.5,536.6,1260.3,536.8L1260.3,536.8z"/>
	<path d="M1262,540v-6h4.3v6H1262z M1262.4,539.2l1.4-2.2l-1.4-2.2V539.2z M1262.6,534.5l1.4,2.2l1.5-2.2H1262.6z M1265.5,539.6
		l-1.5-2.2l-1.4,2.2H1265.5z M1265.8,534.8l-1.4,2.2l1.4,2.2V534.8z"/>
</g>
</svg>
