<?xml version="1.0" encoding="UTF-8"?>
<svg id="Layer_1" data-name="Layer 1" xmlns="http://www.w3.org/2000/svg" fill="#fff" viewBox="0 0 840 960.05">
  <defs>
    <style>
      .cls-1 {
        stroke-width: 0px;
      }
    </style>
  </defs>
  <path class="cls-1" d="M360,480.57c0,139.32.01,278.63,0,417.95,0,29.37-18.48,53.28-46.35,59.79-4.81,1.12-9.88,1.64-14.83,1.64-79.16.1-158.31.1-237.47.05-35.04-.02-61.32-26.32-61.32-61.34C0,619.52,0,340.39.02,61.26.02,26.28,26.35.05,61.44.03,140.43,0,219.42,0,298.41.03c35.38.01,61.56,26.2,61.57,61.59.03,139.65.01,279.3.01,418.95Z"/>
  <path class="cls-1" d="M480,480.03c0-139.65-.02-279.3.01-418.95,0-29.15,18.64-52.9,46.76-59.47,4.49-1.05,9.23-1.52,13.85-1.53,79.66-.09,159.31-.12,238.97-.04,33.8.04,60.37,26.5,60.37,60.25.05,279.8.05,559.6,0,839.4,0,33.75-26.55,60.24-60.34,60.29-79.66.1-159.31.09-238.97,0-34.3-.04-60.63-26.57-60.64-61.01-.04-139.65-.02-279.3-.02-418.95Z"/>
</svg>