<?xml version="1.0" encoding="UTF-8"?>
<svg id="Layer_1" data-name="Layer 1" xmlns="http://www.w3.org/2000/svg" fill="#fff" viewBox="0 0 315.62 383.86">
  <defs>
    <style>
      .cls-1 {
        stroke-width: 0px;
      }
    </style>
  </defs>
  <path class="cls-1" d="M43.91,383.86h-12.75c-16.81-3.25-27.04-14.46-30.16-33.08C.37,346.96,0,343.13,0,339.23.03,240.96.02,142.69.02,44.42c0-9.94,2.13-19.41,7.15-27.99C12.6,7.17,20.09.6,31.61.39c3.1-.19,6.23.42,9.3-.39h1.5c12.94.83,23.72,7.04,34.29,13.75,37.13,23.57,74.3,47.05,111.44,70.59,32.61,20.66,65.24,41.28,97.81,62,8.07,5.14,15.2,11.36,20.84,19.17,12.95,17.96,11.46,40.64-3.21,57.23-7,7.92-15.49,13.67-24.24,19.22-27.42,17.4-54.85,34.8-82.31,52.15-28.41,17.95-56.72,36.05-85.19,53.9-14.82,9.29-29.35,19.04-44.46,27.85-7.27,4.24-14.99,7.24-23.47,8Z"/>
</svg>